<svg width="256" height="256" viewBox="0 0 256 256" fill="none" xmlns="http://www.w3.org/2000/svg">
  <rect width="256" height="256" rx="56" fill="#EEF2F7"/>
  <rect x="44" y="58" width="168" height="140" rx="28" fill="#111827"/>
  <rect x="62" y="78" width="132" height="100" rx="18" fill="#1F2937" stroke="#374151" stroke-width="4"/>
  <circle cx="101" cy="128" r="26" fill="#60A5FA"/>
  <circle cx="101" cy="128" r="12" fill="#DBEAFE"/>
  <path d="M146 108L176 128L146 148V108Z" fill="#F9FAFB"/>
  <rect x="74" y="34" width="58" height="24" rx="12" fill="#60A5FA"/>
  <path d="M171 171C184.255 171 195 160.255 195 147C195 133.745 184.255 123 171 123C157.745 123 147 133.745 147 147C147 160.255 157.745 171 171 171Z" fill="#F8FAFC" stroke="#111827" stroke-width="8"/>
  <path d="M188.5 164.5L214 190" stroke="#111827" stroke-width="12" stroke-linecap="round"/>
</svg>
