<svg width="1280" height="720" viewBox="0 0 1280 720" fill="none" xmlns="http://www.w3.org/2000/svg">
  <rect width="1280" height="720" fill="#F5F7FA"/>
  <rect x="44" y="40" width="1192" height="640" rx="18" fill="#FFFFFF" stroke="#D7DCE3" stroke-width="2"/>
  <rect x="72" y="68" width="1140" height="92" rx="12" fill="#F8FAFC" stroke="#D7DCE3"/>
  <text x="96" y="103" fill="#111827" font-family="Segoe UI, Arial, sans-serif" font-size="28" font-weight="700">cap</text>
  <text x="96" y="133" fill="#6B7280" font-family="Segoe UI, Arial, sans-serif" font-size="16">Foxglove extension panel with helper-backed historical search, compact filters, and camera previews.</text>
  <rect x="882" y="88" width="138" height="40" rx="8" fill="#E9EEF5" stroke="#D7DCE3"/>
  <text x="919" y="113" fill="#111827" font-family="Segoe UI, Arial, sans-serif" font-size="15" font-weight="600">Quick Filters</text>
  <rect x="1032" y="88" width="112" height="40" rx="8" fill="#FFFFFF" stroke="#D7DCE3"/>
  <text x="1064" y="113" fill="#374151" font-family="Segoe UI, Arial, sans-serif" font-size="15" font-weight="600">Snippets</text>
  <rect x="1158" y="88" width="30" height="40" rx="8" fill="#FFFFFF" stroke="#D7DCE3"/>
  <circle cx="1173" cy="108" r="4" fill="#6B7280"/>
  <rect x="72" y="180" width="1140" height="152" rx="12" fill="#FFFFFF" stroke="#D7DCE3"/>
  <text x="92" y="210" fill="#111827" font-family="Segoe UI, Arial, sans-serif" font-size="18" font-weight="700">Quick Filters</text>
  <rect x="92" y="228" width="360" height="40" rx="8" fill="#FFFFFF" stroke="#CBD5E1"/>
  <text x="106" y="253" fill="#6B7280" font-family="Consolas, monospace" font-size="14">/vehicle_speed_kmph.data</text>
  <rect x="464" y="228" width="140" height="40" rx="8" fill="#FFFFFF" stroke="#CBD5E1"/>
  <text x="519" y="253" fill="#111827" font-family="Segoe UI, Arial, sans-serif" font-size="14">&gt;</text>
  <rect x="616" y="228" width="110" height="40" rx="8" fill="#FFFFFF" stroke="#CBD5E1"/>
  <text x="659" y="253" fill="#6B7280" font-family="Segoe UI, Arial, sans-serif" font-size="14">10</text>
  <rect x="738" y="228" width="98" height="40" rx="8" fill="#FFFFFF" stroke="#CBD5E1"/>
  <text x="770" y="253" fill="#6B7280" font-family="Segoe UI, Arial, sans-serif" font-size="14">5 sec</text>
  <rect x="848" y="228" width="104" height="40" rx="8" fill="#FFFFFF" stroke="#CBD5E1"/>
  <text x="876" y="253" fill="#374151" font-family="Segoe UI, Arial, sans-serif" font-size="14">Remove</text>
  <rect x="92" y="282" width="132" height="36" rx="8" fill="#FFFFFF" stroke="#CBD5E1"/>
  <text x="116" y="305" fill="#374151" font-family="Segoe UI, Arial, sans-serif" font-size="14">Add Condition</text>
  <rect x="236" y="282" width="112" height="36" rx="8" fill="#FFFFFF" stroke="#CBD5E1"/>
  <text x="265" y="305" fill="#111827" font-family="Segoe UI, Arial, sans-serif" font-size="14" font-weight="600">Run Search</text>
  <rect x="72" y="352" width="1140" height="300" rx="12" fill="#FFFFFF" stroke="#D7DCE3"/>
  <rect x="72" y="352" width="1140" height="42" rx="12" fill="#EEF2F7"/>
  <text x="96" y="378" fill="#6B7280" font-family="Segoe UI, Arial, sans-serif" font-size="12" font-weight="700">PREVIEW</text>
  <text x="212" y="378" fill="#6B7280" font-family="Segoe UI, Arial, sans-serif" font-size="12" font-weight="700">FRAME</text>
  <text x="302" y="378" fill="#6B7280" font-family="Segoe UI, Arial, sans-serif" font-size="12" font-weight="700">TIMESTAMP</text>
  <text x="450" y="378" fill="#6B7280" font-family="Segoe UI, Arial, sans-serif" font-size="12" font-weight="700">SIGNAL</text>
  <text x="694" y="378" fill="#6B7280" font-family="Segoe UI, Arial, sans-serif" font-size="12" font-weight="700">REASON</text>
  <text x="1018" y="378" fill="#6B7280" font-family="Segoe UI, Arial, sans-serif" font-size="12" font-weight="700">DURATION</text>
  <rect x="92" y="412" width="96" height="54" rx="8" fill="#CBD5E1"/>
  <rect x="96" y="416" width="88" height="46" rx="6" fill="#9AA9BD"/>
  <circle cx="134" cy="437" r="10" fill="#6EE7B7"/>
  <rect x="146" y="430" width="26" height="14" rx="7" fill="#FDE68A"/>
  <text x="210" y="436" fill="#111827" font-family="Segoe UI, Arial, sans-serif" font-size="14" font-weight="600">1134</text>
  <text x="300" y="436" fill="#111827" font-family="Consolas, monospace" font-size="14">1619178183.435s</text>
  <text x="450" y="436" fill="#111827" font-family="Consolas, monospace" font-size="13">/vehicle_speed_kmph.data</text>
  <text x="450" y="456" fill="#6B7280" font-family="Segoe UI, Arial, sans-serif" font-size="12">/vehicle_speed_kmph</text>
  <text x="694" y="436" fill="#111827" font-family="Segoe UI, Arial, sans-serif" font-size="14">Speed &gt; 10 km/h for 5 seconds</text>
  <text x="1030" y="436" fill="#111827" font-family="Segoe UI, Arial, sans-serif" font-size="14">5.00s</text>
  <line x1="92" y1="486" x2="1188" y2="486" stroke="#E5E7EB"/>
  <rect x="92" y="506" width="96" height="54" rx="8" fill="#CBD5E1"/>
  <rect x="96" y="510" width="88" height="46" rx="6" fill="#A5B4FC"/>
  <rect x="108" y="520" width="54" height="22" rx="11" fill="#60A5FA"/>
  <text x="210" y="530" fill="#111827" font-family="Segoe UI, Arial, sans-serif" font-size="14" font-weight="600">1188</text>
  <text x="300" y="530" fill="#111827" font-family="Consolas, monospace" font-size="14">1619178185.295s</text>
  <text x="450" y="530" fill="#111827" font-family="Consolas, monospace" font-size="13">/vehicle_status.lamp</text>
  <text x="450" y="550" fill="#6B7280" font-family="Segoe UI, Arial, sans-serif" font-size="12">/vehicle_status</text>
  <text x="694" y="530" fill="#111827" font-family="Segoe UI, Arial, sans-serif" font-size="14">Turn signal active for at least 3 seconds</text>
  <text x="1030" y="530" fill="#111827" font-family="Segoe UI, Arial, sans-serif" font-size="14">3.12s</text>
</svg>
